<?xml version="1.0" encoding="UTF-8"?><svg id="Layer_1" xmlns="http://www.w3.org/2000/svg" viewBox="0 0 512 512"><circle cx="14.97" cy="64.82" r="5" fill="red" stroke="#000" stroke-width="2"/><circle cx="277.02" cy="9.49" r="5" fill="red" stroke="#000" stroke-width="2"/><circle cx="127.91" cy="409.8" r="5" fill="red" stroke="#000" stroke-width="2"/><circle cx="206.03" cy="206.78" r="5" fill="red" stroke="#000" stroke-width="2"/><circle cx="450.45" cy="463.79" r="5" fill="red" stroke="#000" stroke-width="2"/><circle cx="269.97" cy="146.73" r="5" fill="red" stroke="#000" stroke-width="2"/><circle cx="144.48" cy="48.97" r="5" fill="red" stroke="#000" stroke-width="2"/><circle cx="481.56" cy="126.19" r="5" fill="red" stroke="#000" stroke-width="2"/><circle cx="12.72" cy="241.75" r="5" fill="red" stroke="#000" stroke-width="2"/><circle cx="324.71" cy="357.16" r="5" fill="red" stroke="#000" stroke-width="2"/><circle cx="268.89" cy="196.73" r="5" fill="red" stroke="#000" stroke-width="2"/><circle cx="397.05" cy="172.15" r="5" fill="red" stroke="#000" stroke-width="2"/><circle cx="70.28" cy="103.63" r="5" fill="red" stroke="#000" stroke-width="2"/><circle cx="92.19" cy="421.63" r="5" fill="red" stroke="#000" stroke-width="2"/><circle cx="173.52" cy="105.34" r="5" fill="red" stroke="#000" stroke-width="2"/><circle cx="42.18" cy="414.68" r="5" fill="red" stroke="#000" stroke-width="2"/><circle cx="217" cy="261.51" r="5" fill="red" stroke="#000" stroke-width="2"/><circle cx="270.4" cy="178.5" r="5" fill="red" stroke="#000" stroke-width="2"/><circle cx="469.47" cy="336.86" r="5" fill="red" stroke="#000" stroke-width="2"/><circle cx="405.95" cy="228.84" r="5" fill="red" stroke="#000" stroke-width="2"/><circle cx="247.93" cy="457.93" r="5" fill="red" stroke="#000" stroke-width="2"/><circle cx="23.68" cy="96.12" r="5" fill="red" stroke="#000" stroke-width="2"/><circle cx="499.14" cy="197.03" r="5" fill="red" stroke="#000" stroke-width="2"/><circle cx="228.67" cy="123.96" r="5" fill="red" stroke="#000" stroke-width="2"/><circle cx="262.43" cy="421.9" r="5" fill="red" stroke="#000" stroke-width="2"/><circle cx="108.63" cy="460.77" r="5" fill="red" stroke="#000" stroke-width="2"/><circle cx="499.42" cy="282.77" r="5" fill="red" stroke="#000" stroke-width="2"/><circle cx="369.96" cy="395.46" r="5" fill="red" stroke="#000" stroke-width="2"/><circle cx="229.53" cy="341.13" r="5" fill="red" stroke="#000" stroke-width="2"/><circle cx="317.93" cy="97.93" r="5" fill="red" stroke="#000" stroke-width="2"/><circle cx="96.49" cy="283.29" r="5" fill="red" stroke="#000" stroke-width="2"/><circle cx="207.2" cy="228.66" r="5" fill="red" stroke="#000" stroke-width="2"/><circle cx="245.25" cy="248.95" r="5" fill="red" stroke="#000" stroke-width="2"/><circle cx="340.02" cy="409.37" r="5" fill="red" stroke="#000" stroke-width="2"/><circle cx="103.38" cy="381.8" r="5" fill="red" stroke="#000" stroke-width="2"/></svg>